<svg width="24" height="24" viewBox="0 0 24 24" fill="none" xmlns="http://www.w3.org/2000/svg">
<rect width="24" height="24" fill="#E5E5E5"/>
<g id="Frame 11">
<rect width="1920" height="1024" transform="translate(-857 -434)" fill="#202123"/>
<g id="Rectangle 49" filter="url(#filter0_d_0_1)">
<rect x="-97" y="-8" width="400" height="40" rx="5" fill="#242526"/>
<rect x="-96.9" y="-7.9" width="399.8" height="39.8" rx="4.9" stroke="white" stroke-width="0.2"/>
</g>
<g id="icons8-google 2">
<path id="Vector" d="M21.8055 10.0415H21V10H12V14H17.6515C16.827 16.3285 14.6115 18 12 18C8.6865 18 6 15.3135 6 12C6 8.6865 8.6865 6 12 6C13.5295 6 14.921 6.577 15.9805 7.5195L18.809 4.691C17.023 3.0265 14.634 2 12 2C6.4775 2 2 6.4775 2 12C2 17.5225 6.4775 22 12 22C17.5225 22 22 17.5225 22 12C22 11.3295 21.931 10.675 21.8055 10.0415Z" fill="#FBC02D"/>
<path id="Vector_2" d="M3.15308 7.3455L6.43858 9.755C7.32758 7.554 9.48058 6 12.0001 6C13.5296 6 14.9211 6.577 15.9806 7.5195L18.8091 4.691C17.0231 3.0265 14.6341 2 12.0001 2C8.15908 2 4.82808 4.1685 3.15308 7.3455Z" fill="#E53935"/>
<path id="Vector_3" d="M11.9999 22C14.5829 22 16.9299 21.0115 18.7044 19.404L15.6094 16.785C14.6054 17.5455 13.3574 18 11.9999 18C9.39891 18 7.19041 16.3415 6.35841 14.027L3.09741 16.5395C4.75241 19.778 8.11341 22 11.9999 22Z" fill="#4CAF50"/>
<path id="Vector_4" d="M21.8055 10.0415L21.7975 10H21H12V14H17.6515C17.2555 15.1185 16.536 16.083 15.608 16.7855L15.6095 16.7845L18.7045 19.4035C18.4855 19.6025 22 17 22 12C22 11.3295 21.931 10.675 21.8055 10.0415Z" fill="#1565C0"/>
</g>
</g>
<defs>
<filter id="filter0_d_0_1" x="-101" y="-8" width="408" height="48" filterUnits="userSpaceOnUse" color-interpolation-filters="sRGB">
<feFlood flood-opacity="0" result="BackgroundImageFix"/>
<feColorMatrix in="SourceAlpha" type="matrix" values="0 0 0 0 0 0 0 0 0 0 0 0 0 0 0 0 0 0 127 0" result="hardAlpha"/>
<feOffset dy="4"/>
<feGaussianBlur stdDeviation="2"/>
<feComposite in2="hardAlpha" operator="out"/>
<feColorMatrix type="matrix" values="0 0 0 0 0 0 0 0 0 0 0 0 0 0 0 0 0 0 0.25 0"/>
<feBlend mode="normal" in2="BackgroundImageFix" result="effect1_dropShadow_0_1"/>
<feBlend mode="normal" in="SourceGraphic" in2="effect1_dropShadow_0_1" result="shape"/>
</filter>
</defs>
</svg>
