<svg width="40" height="40" viewBox="0 0 40 40" fill="none" xmlns="http://www.w3.org/2000/svg">
<path d="M10 36.6666H31.6667C32.5507 36.6666 33.3986 36.3155 34.0237 35.6903C34.6488 35.0652 35 34.2174 35 33.3333V6.66665C35 5.78259 34.6488 4.93474 34.0237 4.30962C33.3986 3.6845 32.5507 3.33331 31.6667 3.33331H8.33333C7.44928 3.33331 6.60143 3.6845 5.97631 4.30962C5.35119 4.93474 5 5.78259 5 6.66665V33.3333C5 34.2174 5.35119 35.0652 5.97631 35.6903C6.60143 36.3155 7.44928 36.6666 8.33333 36.6666H10ZM20 8.33165C22.745 8.33165 25 10.5833 25 13.3316C25 16.0783 22.745 18.3333 20 18.3333C17.255 18.3333 15 16.0783 15 13.3316C15 10.5833 17.255 8.33165 20 8.33165ZM10 28.75C10 25.0516 14.5083 21.25 20 21.25C25.4917 21.25 30 25.0516 30 28.75V30H10V28.75Z" fill="#557CFC"/>
</svg>
